<mxfile host="app.diagrams.net" modified="2020-09-14T10:05:56.673Z" agent="5.0 (Windows NT 10.0; Win64; x64) AppleWebKit/537.36 (KHTML, like Gecko) Chrome/84.0.4147.125 Safari/537.36" etag="Uuds0oK3QoguikQagAR4" version="13.6.9" type="github">
  <diagram id="GbtlaQpBiUrb4YM5A01o" name="第 1 页">
    <mxGraphModel dx="1422" dy="772" grid="1" gridSize="10" guides="1" tooltips="1" connect="1" arrows="1" fold="1" page="1" pageScale="1" pageWidth="827" pageHeight="1169" math="0" shadow="0">
      <root>
        <mxCell id="0" />
        <mxCell id="1" parent="0" />
        <mxCell id="QXUsdO9ywY45B4wO6g-w-1" value="Actor" style="shape=umlActor;verticalLabelPosition=bottom;verticalAlign=top;html=1;outlineConnect=0;fontStyle=1;fillColor=#fff2cc;strokeColor=#d6b656;strokeWidth=3;" vertex="1" parent="1">
          <mxGeometry x="80" y="120" width="30" height="40" as="geometry" />
        </mxCell>
        <mxCell id="QXUsdO9ywY45B4wO6g-w-3" value="预存需要消费的金额" style="shape=callout;whiteSpace=wrap;html=1;perimeter=calloutPerimeter;strokeWidth=1;position2=0.08;base=25;size=20;position=0.23;" vertex="1" parent="1">
          <mxGeometry x="100" y="60" width="130" height="60" as="geometry" />
        </mxCell>
        <mxCell id="QXUsdO9ywY45B4wO6g-w-4" value="" style="endArrow=classic;html=1;" edge="1" parent="1">
          <mxGeometry relative="1" as="geometry">
            <mxPoint x="120" y="150" as="sourcePoint" />
            <mxPoint x="280" y="150" as="targetPoint" />
          </mxGeometry>
        </mxCell>
        <mxCell id="QXUsdO9ywY45B4wO6g-w-5" value="消费卡" style="edgeLabel;resizable=0;html=1;align=center;verticalAlign=middle;fontStyle=1" connectable="0" vertex="1" parent="QXUsdO9ywY45B4wO6g-w-4">
          <mxGeometry relative="1" as="geometry" />
        </mxCell>
        <mxCell id="QXUsdO9ywY45B4wO6g-w-6" value="" style="rounded=0;whiteSpace=wrap;html=1;strokeWidth=2;" vertex="1" parent="1">
          <mxGeometry x="40" y="320" width="760" height="570" as="geometry" />
        </mxCell>
        <mxCell id="QXUsdO9ywY45B4wO6g-w-7" value="" style="rounded=0;whiteSpace=wrap;html=1;strokeWidth=1;" vertex="1" parent="1">
          <mxGeometry x="610" y="320" width="190" height="100" as="geometry" />
        </mxCell>
        <mxCell id="QXUsdO9ywY45B4wO6g-w-8" value="" style="verticalLabelPosition=bottom;html=1;verticalAlign=top;align=center;shape=mxgraph.floorplan.doorOverhead;strokeWidth=2;" vertex="1" parent="1">
          <mxGeometry x="35" y="890" width="770" height="100" as="geometry" />
        </mxCell>
        <mxCell id="QXUsdO9ywY45B4wO6g-w-12" value="" style="verticalLabelPosition=bottom;html=1;verticalAlign=top;align=center;shape=mxgraph.floorplan.doorSlidingGlass;dx=0.25;strokeWidth=2;rotation=-180;" vertex="1" parent="1">
          <mxGeometry x="160" y="884" width="280" height="10" as="geometry" />
        </mxCell>
        <mxCell id="QXUsdO9ywY45B4wO6g-w-13" value="" style="verticalLabelPosition=bottom;html=1;verticalAlign=top;align=center;shape=mxgraph.floorplan.doorSlidingGlass;dx=0.25;strokeWidth=2;rotation=0;" vertex="1" parent="1">
          <mxGeometry x="440" y="884" width="280" height="10" as="geometry" />
        </mxCell>
        <mxCell id="QXUsdO9ywY45B4wO6g-w-14" value="" style="verticalLabelPosition=bottom;html=1;verticalAlign=top;align=center;shape=mxgraph.floorplan.wall;fillColor=#000000;direction=south;strokeWidth=2;rotation=90;" vertex="1" parent="1">
          <mxGeometry x="260" y="180" width="30" height="370" as="geometry" />
        </mxCell>
        <mxCell id="QXUsdO9ywY45B4wO6g-w-15" value="" style="verticalLabelPosition=bottom;html=1;verticalAlign=top;align=center;shape=mxgraph.floorplan.dresser;strokeWidth=2;rotation=-90;" vertex="1" parent="1">
          <mxGeometry x="35" y="775" width="115" height="80" as="geometry" />
        </mxCell>
        <mxCell id="QXUsdO9ywY45B4wO6g-w-16" value="" style="verticalLabelPosition=bottom;html=1;verticalAlign=top;align=center;shape=mxgraph.floorplan.wall;fillColor=#000000;direction=south;strokeWidth=2;" vertex="1" parent="1">
          <mxGeometry x="70" y="380" width="30" height="370" as="geometry" />
        </mxCell>
        <mxCell id="QXUsdO9ywY45B4wO6g-w-18" value="" style="line;strokeWidth=1;html=1;perimeter=backbonePerimeter;points=[];outlineConnect=0;" vertex="1" parent="1">
          <mxGeometry x="90" y="375" width="30" height="10" as="geometry" />
        </mxCell>
        <mxCell id="QXUsdO9ywY45B4wO6g-w-19" value="" style="line;strokeWidth=1;html=1;perimeter=backbonePerimeter;points=[];outlineConnect=0;" vertex="1" parent="1">
          <mxGeometry x="88" y="745" width="30" height="10" as="geometry" />
        </mxCell>
        <mxCell id="QXUsdO9ywY45B4wO6g-w-23" value="" style="endArrow=classic;startArrow=classic;html=1;dashed=1;" edge="1" parent="1" source="QXUsdO9ywY45B4wO6g-w-19" target="QXUsdO9ywY45B4wO6g-w-18">
          <mxGeometry width="50" height="50" relative="1" as="geometry">
            <mxPoint x="220" y="660" as="sourcePoint" />
            <mxPoint x="270" y="610" as="targetPoint" />
          </mxGeometry>
        </mxCell>
        <mxCell id="QXUsdO9ywY45B4wO6g-w-24" value="3.7米" style="edgeLabel;html=1;align=center;verticalAlign=middle;resizable=0;points=[];" vertex="1" connectable="0" parent="QXUsdO9ywY45B4wO6g-w-23">
          <mxGeometry x="0.0784" y="-1" relative="1" as="geometry">
            <mxPoint y="1" as="offset" />
          </mxGeometry>
        </mxCell>
        <mxCell id="QXUsdO9ywY45B4wO6g-w-33" value="" style="group;rotation=-90;" vertex="1" connectable="0" parent="1">
          <mxGeometry x="260" y="150" width="32" height="380" as="geometry" />
        </mxCell>
        <mxCell id="QXUsdO9ywY45B4wO6g-w-29" value="" style="line;strokeWidth=1;html=1;perimeter=backbonePerimeter;points=[];outlineConnect=0;rotation=-90;" vertex="1" parent="QXUsdO9ywY45B4wO6g-w-33">
          <mxGeometry x="-184" y="184" width="30" height="10" as="geometry" />
        </mxCell>
        <mxCell id="QXUsdO9ywY45B4wO6g-w-30" value="" style="line;strokeWidth=1;html=1;perimeter=backbonePerimeter;points=[];outlineConnect=0;rotation=-90;" vertex="1" parent="QXUsdO9ywY45B4wO6g-w-33">
          <mxGeometry x="186" y="186" width="30" height="10" as="geometry" />
        </mxCell>
        <mxCell id="QXUsdO9ywY45B4wO6g-w-31" value="" style="endArrow=classic;startArrow=classic;html=1;dashed=1;" edge="1" parent="QXUsdO9ywY45B4wO6g-w-33" source="QXUsdO9ywY45B4wO6g-w-30" target="QXUsdO9ywY45B4wO6g-w-29">
          <mxGeometry width="50" height="50" relative="1" as="geometry">
            <mxPoint x="111" y="74" as="sourcePoint" />
            <mxPoint x="61" y="24" as="targetPoint" />
          </mxGeometry>
        </mxCell>
        <mxCell id="QXUsdO9ywY45B4wO6g-w-32" value="3.7米" style="edgeLabel;html=1;align=center;verticalAlign=middle;resizable=0;points=[];rotation=0;" vertex="1" connectable="0" parent="QXUsdO9ywY45B4wO6g-w-31">
          <mxGeometry x="0.0784" y="-1" relative="1" as="geometry">
            <mxPoint y="1" as="offset" />
          </mxGeometry>
        </mxCell>
        <mxCell id="QXUsdO9ywY45B4wO6g-w-40" value="" style="verticalLabelPosition=bottom;html=1;verticalAlign=top;align=center;shape=mxgraph.floorplan.wall;fillColor=#000000;direction=south;strokeWidth=2;rotation=90;" vertex="1" parent="1">
          <mxGeometry x="260" y="180" width="30" height="370" as="geometry" />
        </mxCell>
        <mxCell id="QXUsdO9ywY45B4wO6g-w-45" value="" style="verticalLabelPosition=bottom;html=1;verticalAlign=top;align=center;shape=mxgraph.floorplan.wall;fillColor=#000000;direction=south;strokeWidth=2;rotation=90;" vertex="1" parent="1">
          <mxGeometry x="260" y="180" width="30" height="370" as="geometry" />
        </mxCell>
        <mxCell id="QXUsdO9ywY45B4wO6g-w-52" value="" style="group;rotation=-90;" vertex="1" connectable="0" parent="1">
          <mxGeometry x="560" y="585" width="400" height="56" as="geometry" />
        </mxCell>
        <mxCell id="QXUsdO9ywY45B4wO6g-w-46" value="" style="group;rotation=-180;" vertex="1" connectable="0" parent="QXUsdO9ywY45B4wO6g-w-52">
          <mxGeometry x="181.05263157894737" y="-152" width="33.68421052631579" height="380" as="geometry" />
        </mxCell>
        <mxCell id="QXUsdO9ywY45B4wO6g-w-47" value="" style="line;strokeWidth=1;html=1;perimeter=backbonePerimeter;points=[];outlineConnect=0;rotation=-180;" vertex="1" parent="QXUsdO9ywY45B4wO6g-w-46">
          <mxGeometry y="370" width="31.57894736842105" height="10" as="geometry" />
        </mxCell>
        <mxCell id="QXUsdO9ywY45B4wO6g-w-48" value="" style="line;strokeWidth=1;html=1;perimeter=backbonePerimeter;points=[];outlineConnect=0;rotation=-180;" vertex="1" parent="QXUsdO9ywY45B4wO6g-w-46">
          <mxGeometry x="2.1052631578947367" width="31.57894736842105" height="10" as="geometry" />
        </mxCell>
        <mxCell id="QXUsdO9ywY45B4wO6g-w-49" value="" style="endArrow=classic;startArrow=classic;html=1;dashed=1;" edge="1" parent="QXUsdO9ywY45B4wO6g-w-46" source="QXUsdO9ywY45B4wO6g-w-48" target="QXUsdO9ywY45B4wO6g-w-47">
          <mxGeometry width="50" height="50" relative="1" as="geometry">
            <mxPoint x="-105.26315789473684" y="95" as="sourcePoint" />
            <mxPoint x="-157.89473684210526" y="145" as="targetPoint" />
          </mxGeometry>
        </mxCell>
        <mxCell id="QXUsdO9ywY45B4wO6g-w-50" value="4.0米" style="edgeLabel;html=1;align=center;verticalAlign=middle;resizable=0;points=[];rotation=0;" vertex="1" connectable="0" parent="QXUsdO9ywY45B4wO6g-w-49">
          <mxGeometry x="0.0784" y="-1" relative="1" as="geometry">
            <mxPoint y="1" as="offset" />
          </mxGeometry>
        </mxCell>
        <mxCell id="QXUsdO9ywY45B4wO6g-w-51" value="" style="verticalLabelPosition=bottom;html=1;verticalAlign=top;align=center;shape=mxgraph.floorplan.wall;fillColor=#000000;direction=south;strokeWidth=2;rotation=0;" vertex="1" parent="QXUsdO9ywY45B4wO6g-w-52">
          <mxGeometry x="208.42105263157893" y="-146" width="31.57894736842105" height="370" as="geometry" />
        </mxCell>
        <mxCell id="QXUsdO9ywY45B4wO6g-w-62" value="" style="group" vertex="1" connectable="0" parent="1">
          <mxGeometry x="215" y="460" width="120" height="222" as="geometry" />
        </mxCell>
        <mxCell id="QXUsdO9ywY45B4wO6g-w-56" value="" style="rounded=0;whiteSpace=wrap;html=1;strokeWidth=1;" vertex="1" parent="QXUsdO9ywY45B4wO6g-w-62">
          <mxGeometry y="37" width="120" height="37" as="geometry" />
        </mxCell>
        <mxCell id="QXUsdO9ywY45B4wO6g-w-57" value="" style="rounded=0;whiteSpace=wrap;html=1;strokeWidth=1;" vertex="1" parent="QXUsdO9ywY45B4wO6g-w-62">
          <mxGeometry y="74" width="120" height="37" as="geometry" />
        </mxCell>
        <mxCell id="QXUsdO9ywY45B4wO6g-w-58" value="" style="rounded=0;whiteSpace=wrap;html=1;strokeWidth=1;" vertex="1" parent="QXUsdO9ywY45B4wO6g-w-62">
          <mxGeometry y="111" width="120" height="37" as="geometry" />
        </mxCell>
        <mxCell id="QXUsdO9ywY45B4wO6g-w-59" value="" style="rounded=0;whiteSpace=wrap;html=1;strokeWidth=1;" vertex="1" parent="QXUsdO9ywY45B4wO6g-w-62">
          <mxGeometry y="148" width="120" height="37" as="geometry" />
        </mxCell>
        <mxCell id="QXUsdO9ywY45B4wO6g-w-60" value="" style="rounded=0;whiteSpace=wrap;html=1;strokeWidth=1;" vertex="1" parent="QXUsdO9ywY45B4wO6g-w-62">
          <mxGeometry y="185" width="120" height="37" as="geometry" />
        </mxCell>
        <mxCell id="QXUsdO9ywY45B4wO6g-w-61" value="" style="rounded=0;whiteSpace=wrap;html=1;strokeWidth=1;" vertex="1" parent="QXUsdO9ywY45B4wO6g-w-62">
          <mxGeometry width="120" height="37" as="geometry" />
        </mxCell>
        <mxCell id="QXUsdO9ywY45B4wO6g-w-63" value="" style="group" vertex="1" connectable="0" parent="1">
          <mxGeometry x="400" y="460" width="120" height="222" as="geometry" />
        </mxCell>
        <mxCell id="QXUsdO9ywY45B4wO6g-w-64" value="" style="rounded=0;whiteSpace=wrap;html=1;strokeWidth=1;" vertex="1" parent="QXUsdO9ywY45B4wO6g-w-63">
          <mxGeometry y="37" width="120" height="37" as="geometry" />
        </mxCell>
        <mxCell id="QXUsdO9ywY45B4wO6g-w-65" value="" style="rounded=0;whiteSpace=wrap;html=1;strokeWidth=1;" vertex="1" parent="QXUsdO9ywY45B4wO6g-w-63">
          <mxGeometry y="74" width="120" height="37" as="geometry" />
        </mxCell>
        <mxCell id="QXUsdO9ywY45B4wO6g-w-66" value="" style="rounded=0;whiteSpace=wrap;html=1;strokeWidth=1;" vertex="1" parent="QXUsdO9ywY45B4wO6g-w-63">
          <mxGeometry y="111" width="120" height="37" as="geometry" />
        </mxCell>
        <mxCell id="QXUsdO9ywY45B4wO6g-w-67" value="" style="rounded=0;whiteSpace=wrap;html=1;strokeWidth=1;" vertex="1" parent="QXUsdO9ywY45B4wO6g-w-63">
          <mxGeometry y="148" width="120" height="37" as="geometry" />
        </mxCell>
        <mxCell id="QXUsdO9ywY45B4wO6g-w-68" value="" style="rounded=0;whiteSpace=wrap;html=1;strokeWidth=1;" vertex="1" parent="QXUsdO9ywY45B4wO6g-w-63">
          <mxGeometry y="185" width="120" height="37" as="geometry" />
        </mxCell>
        <mxCell id="QXUsdO9ywY45B4wO6g-w-69" value="" style="rounded=0;whiteSpace=wrap;html=1;strokeWidth=1;" vertex="1" parent="QXUsdO9ywY45B4wO6g-w-63">
          <mxGeometry width="120" height="37" as="geometry" />
        </mxCell>
        <mxCell id="QXUsdO9ywY45B4wO6g-w-73" value="" style="rounded=0;whiteSpace=wrap;html=1;strokeWidth=1;" vertex="1" parent="1">
          <mxGeometry x="600" y="720" width="60" height="164" as="geometry" />
        </mxCell>
      </root>
    </mxGraphModel>
  </diagram>
</mxfile>
